{
DisplayStrings = (
"`"
);
date = "2013-12-03 17:14:36 +0000";
designer = "Shinji Pons";
designerURL = www.shinjipons.com;
familyName = "Modulo 14";
fontMaster = (
{
alignmentZones = (
"{128, 129}",
"{128, 129}",
"{128, 129}",
"{0, -2}",
"{0, -2}"
);
ascender = 128;
capHeight = 128;
customParameters = (
{
name = familyName;
value = "Modulo 14";
}
);
descender = 0;
guideLines = (
{
position = "{-18, 57}";
},
{
angle = 90;
position = "{79, 135}";
},
{
angle = 90;
position = "{65, 136}";
},
{
position = "{-18, 71}";
},
{
angle = 90;
position = "{22, 143}";
},
{
angle = 90;
position = "{122, 136}";
},
{
position = "{-19, 114}";
},
{
position = "{-20, 14}";
},
{
angle = 90;
position = "{136, -22}";
},
{
angle = 90;
position = "{8, -30}";
},
{
angle = 90;
position = "{129, 134}";
},
{
position = "{146, 121}";
},
{
position = "{-2, 7}";
},
{
angle = 90;
position = "{15, -16.613}";
},
{
position = "{-11, 64}";
},
{
angle = 90;
position = "{72, 81}";
}
);
horizontalStems = (
14
);
id = "940E2F63-624A-4C3D-A909-721782B4CF41";
verticalStems = (
14
);
weightValue = 14;
widthValue = 128;
xHeight = 128;
}
);
glyphs = (
{
glyphname = A;
lastChange = "2013-12-06 20:03:55 +0000";
layers = (
{
guideLines = (
{
angle = 90;
position = "{50, -8}";
showMeasurement = 1;
}
);
layerId = "940E2F63-624A-4C3D-A909-721782B4CF41";
name = Regular;
paths = (
{
closed = 1;
nodes = (
"15 128 LINE SMOOTH",
"11.134 128 OFFCURVE",
"8 124.866 OFFCURVE",
"8 121 CURVE SMOOTH",
"8 117.134 OFFCURVE",
"11.134 114 OFFCURVE",
"15 114 CURVE SMOOTH",
"122 114 LINE",
"122 14 LINE",
"22 14 LINE",
"22 57 LINE",
"72 57 LINE SMOOTH",
"75.866 57 OFFCURVE",
"79 60.134 OFFCURVE",
"79 64 CURVE SMOOTH",
"79 67.866 OFFCURVE",
"75.866 71 OFFCURVE",
"72 71 CURVE SMOOTH",
"14.987 71 LINE SMOOTH",
"11.127 70.9929 OFFCURVE",
"8 67.8618 OFFCURVE",
"8 64 CURVE SMOOTH",
"8 7 LINE SMOOTH",
"8 3.1342 OFFCURVE",
"11.1341 0 OFFCURVE",
"15 0 CURVE SMOOTH",
"129 0 LINE SMOOTH",
"132.866 0 OFFCURVE",
"136 3.1342 OFFCURVE",
"136 7 CURVE SMOOTH",
"136 121 LINE SMOOTH",
"136 124.866 OFFCURVE",
"132.866 128 OFFCURVE",
"129 128 CURVE SMOOTH"
);
}
);
width = 144;
}
);
unicode = 0041;
},
{
glyphname = B;
lastChange = "2013-12-06 20:05:39 +0000";
layers = (
{
layerId = "940E2F63-624A-4C3D-A909-721782B4CF41";
name = Regular;
paths = (
{
closed = 1;
nodes = (
"15 128 LINE SMOOTH",
"11.1344 128 OFFCURVE",
"8 124.866 OFFCURVE",
"8 121 CURVE SMOOTH",
"8 7 LINE SMOOTH",
"8 3.134 OFFCURVE",
"11.1344 0 OFFCURVE",
"15 0 CURVE SMOOTH",
"18.8664 0 OFFCURVE",
"22 3.134 OFFCURVE",
"22 7 CURVE SMOOTH",
"22 114 LINE",
"122 114 LINE",
"122 71 LINE",
"72 71 LINE SMOOTH",
"68.1344 71 OFFCURVE",
"65 67.866 OFFCURVE",
"65 64 CURVE SMOOTH",
"65 60.134 OFFCURVE",
"68.1344 57 OFFCURVE",
"72 57 CURVE SMOOTH",
"122 57 LINE",
"122 14 LINE",
"72 14 LINE SMOOTH",
"68.1344 14 OFFCURVE",
"65 10.866 OFFCURVE",
"65 7 CURVE SMOOTH",
"65 3.134 OFFCURVE",
"68.1344 0 OFFCURVE",
"72 0 CURVE SMOOTH",
"129 0 LINE SMOOTH",
"132.866 0 OFFCURVE",
"136 3.134 OFFCURVE",
"136 7 CURVE SMOOTH",
"136 121 LINE SMOOTH",
"136 124.866 OFFCURVE",
"132.866 128 OFFCURVE",
"129 128 CURVE SMOOTH"
);
}
);
width = 144;
}
);
unicode = 0042;
},
{
glyphname = C;
lastChange = "2013-12-06 20:07:11 +0000";
layers = (
{
layerId = "940E2F63-624A-4C3D-A909-721782B4CF41";
name = Regular;
paths = (
{
closed = 1;
nodes = (
"22 14 LINE",
"22 114 LINE",
"129 114 LINE SMOOTH",
"132.866 114 OFFCURVE",
"136 117.134 OFFCURVE",
"136 121 CURVE SMOOTH",
"136 124.866 OFFCURVE",
"132.866 128 OFFCURVE",
"129 128 CURVE SMOOTH",
"15 128 LINE SMOOTH",
"11.134 128 OFFCURVE",
"8 124.866 OFFCURVE",
"8 121 CURVE SMOOTH",
"8 7 LINE SMOOTH",
"8 3.134 OFFCURVE",
"11.134 0 OFFCURVE",
"15 0 CURVE SMOOTH",
"129 0 LINE SMOOTH",
"132.866 0 OFFCURVE",
"136 3.134 OFFCURVE",
"136 7 CURVE SMOOTH",
"136 10.866 OFFCURVE",
"132.866 14 OFFCURVE",
"129 14 CURVE SMOOTH"
);
}
);
width = 144;
}
);
unicode = 0043;
},
{
glyphname = D;
lastChange = "2013-12-06 20:23:53 +0000";
layers = (
{
layerId = "940E2F63-624A-4C3D-A909-721782B4CF41";
name = Regular;
paths = (
{
closed = 1;
nodes = (
"15 128 LINE SMOOTH",
"11.134 128 OFFCURVE",
"8 124.866 OFFCURVE",
"8 121 CURVE SMOOTH",
"8 117.134 OFFCURVE",
"11.134 114 OFFCURVE",
"15 114 CURVE SMOOTH",
"122 114 LINE",
"122 14 LINE",
"22 14 LINE",
"22 64 LINE SMOOTH",
"22 67.866 OFFCURVE",
"18.866 71 OFFCURVE",
"15 71 CURVE SMOOTH",
"11.134 71 OFFCURVE",
"8 67.866 OFFCURVE",
"8 64 CURVE SMOOTH",
"8 7 LINE SMOOTH",
"8 3.134 OFFCURVE",
"11.134 0 OFFCURVE",
"15 0 CURVE SMOOTH",
"129 0 LINE SMOOTH",
"132.866 0 OFFCURVE",
"136 3.134 OFFCURVE",
"136 7 CURVE SMOOTH",
"136 121 LINE SMOOTH",
"136 124.866 OFFCURVE",
"132.866 128 OFFCURVE",
"129 128 CURVE SMOOTH"
);
}
);
width = 144;
}
);
unicode = 0044;
},
{
glyphname = E;
lastChange = "2013-12-06 20:28:36 +0000";
layers = (
{
layerId = "940E2F63-624A-4C3D-A909-721782B4CF41";
name = Regular;
paths = (
{
closed = 1;
nodes = (
"129 57 LINE",
"136 64 LINE",
"136 121 LINE",
"129 128 LINE",
"72 128 LINE",
"72 114 LINE",
"122 114 LINE",
"122 71 LINE",
"22 71 LINE",
"22 121 LINE",
"8 121 LINE",
"8 7 LINE",
"15 0 LINE",
"129 0 LINE",
"129 14 LINE",
"22 14 LINE",
"22 57 LINE"
);
},
{
closed = 1;
nodes = (
"18.866 114 OFFCURVE",
"22 117.134 OFFCURVE",
"22 121 CURVE SMOOTH",
"22 124.866 OFFCURVE",
"18.866 128 OFFCURVE",
"15 128 CURVE SMOOTH",
"11.134 128 OFFCURVE",
"8 124.866 OFFCURVE",
"8 121 CURVE SMOOTH",
"8 117.134 OFFCURVE",
"11.134 114 OFFCURVE",
"15 114 CURVE SMOOTH"
);
},
{
closed = 1;
nodes = (
"75.866 114 OFFCURVE",
"79 117.134 OFFCURVE",
"79 121 CURVE SMOOTH",
"79 124.866 OFFCURVE",
"75.866 128 OFFCURVE",
"72 128 CURVE SMOOTH",
"68.134 128 OFFCURVE",
"65 124.866 OFFCURVE",
"65 121 CURVE SMOOTH",
"65 117.134 OFFCURVE",
"68.134 114 OFFCURVE",
"72 114 CURVE SMOOTH"
);
},
{
closed = 1;
nodes = (
"132.866 114 OFFCURVE",
"136 117.134 OFFCURVE",
"136 121 CURVE SMOOTH",
"136 124.866 OFFCURVE",
"132.866 128 OFFCURVE",
"129 128 CURVE SMOOTH",
"125.134 128 OFFCURVE",
"122 124.866 OFFCURVE",
"122 121 CURVE SMOOTH",
"122 117.134 OFFCURVE",
"125.134 114 OFFCURVE",
"129 114 CURVE SMOOTH"
);
},
{
closed = 1;
nodes = (
"132.866 57 OFFCURVE",
"136 60.134 OFFCURVE",
"136 64 CURVE SMOOTH",
"136 67.866 OFFCURVE",
"132.866 71 OFFCURVE",
"129 71 CURVE SMOOTH",
"125.134 71 OFFCURVE",
"122 67.866 OFFCURVE",
"122 64 CURVE SMOOTH",
"122 60.134 OFFCURVE",
"125.134 57 OFFCURVE",
"129 57 CURVE SMOOTH"
);
},
{
closed = 1;
nodes = (
"18.866 0 OFFCURVE",
"22 3.13397 OFFCURVE",
"22 7 CURVE SMOOTH",
"22 10.866 OFFCURVE",
"18.866 14 OFFCURVE",
"15 14 CURVE SMOOTH",
"11.134 14 OFFCURVE",
"8 10.866 OFFCURVE",
"8 7 CURVE SMOOTH",
"8 3.13397 OFFCURVE",
"11.134 0 OFFCURVE",
"15 0 CURVE SMOOTH"
);
},
{
closed = 1;
nodes = (
"132.866 0 OFFCURVE",
"136 3.13397 OFFCURVE",
"136 7 CURVE SMOOTH",
"136 10.866 OFFCURVE",
"132.866 14 OFFCURVE",
"129 14 CURVE SMOOTH",
"125.134 14 OFFCURVE",
"122 10.866 OFFCURVE",
"122 7 CURVE SMOOTH",
"122 3.13397 OFFCURVE",
"125.134 0 OFFCURVE",
"129 0 CURVE SMOOTH"
);
}
);
width = 144;
}
);
unicode = 0045;
},
{
glyphname = F;
lastChange = "2013-12-06 20:29:40 +0000";
layers = (
{
layerId = "940E2F63-624A-4C3D-A909-721782B4CF41";
name = Regular;
paths = (
{
closed = 1;
nodes = (
"22 7 LINE",
"22 57 LINE",
"129 57 LINE",
"129 71 LINE",
"22 71 LINE",
"22 114 LINE",
"129 114 LINE",
"129 128 LINE",
"15 128 LINE",
"8 121 LINE",
"8 7 LINE"
);
},
{
closed = 1;
nodes = (
"132.866 114 OFFCURVE",
"136 117.134 OFFCURVE",
"136 121 CURVE SMOOTH",
"136 124.866 OFFCURVE",
"132.866 128 OFFCURVE",
"129 128 CURVE SMOOTH",
"125.134 128 OFFCURVE",
"122 124.866 OFFCURVE",
"122 121 CURVE SMOOTH",
"122 117.134 OFFCURVE",
"125.134 114 OFFCURVE",
"129 114 CURVE SMOOTH"
);
},
{
closed = 1;
nodes = (
"18.866 114 OFFCURVE",
"22 117.134 OFFCURVE",
"22 121 CURVE SMOOTH",
"22 124.866 OFFCURVE",
"18.866 128 OFFCURVE",
"15 128 CURVE SMOOTH",
"11.134 128 OFFCURVE",
"8 124.866 OFFCURVE",
"8 121 CURVE SMOOTH",
"8 117.134 OFFCURVE",
"11.134 114 OFFCURVE",
"15 114 CURVE SMOOTH"
);
},
{
closed = 1;
nodes = (
"132.866 57 OFFCURVE",
"136 60.134 OFFCURVE",
"136 64 CURVE SMOOTH",
"136 67.866 OFFCURVE",
"132.866 71 OFFCURVE",
"129 71 CURVE SMOOTH",
"125.134 71 OFFCURVE",
"122 67.866 OFFCURVE",
"122 64 CURVE SMOOTH",
"122 60.134 OFFCURVE",
"125.134 57 OFFCURVE",
"129 57 CURVE SMOOTH"
);
},
{
closed = 1;
nodes = (
"18.866 0 OFFCURVE",
"22 3.13397 OFFCURVE",
"22 7 CURVE SMOOTH",
"22 10.866 OFFCURVE",
"18.866 14 OFFCURVE",
"15 14 CURVE SMOOTH",
"11.134 14 OFFCURVE",
"8 10.866 OFFCURVE",
"8 7 CURVE SMOOTH",
"8 3.13397 OFFCURVE",
"11.134 0 OFFCURVE",
"15 0 CURVE SMOOTH"
);
}
);
width = 144;
}
);
unicode = 0046;
},
{
glyphname = H;
lastChange = "2013-12-06 20:37:03 +0000";
layers = (
{
layerId = "940E2F63-624A-4C3D-A909-721782B4CF41";
name = Regular;
paths = (
{
closed = 1;
nodes = (
"122 121 LINE",
"122 71 LINE",
"22 71 LINE",
"22 121 LINE",
"8 121 LINE",
"8 7 LINE",
"22 7 LINE",
"22 57 LINE",
"122 57 LINE",
"122 7 LINE",
"136 7 LINE",
"136 121 LINE"
);
},
{
closed = 1;
nodes = (
"18.866 0 OFFCURVE",
"22 3.13397 OFFCURVE",
"22 7 CURVE SMOOTH",
"22 10.866 OFFCURVE",
"18.866 14 OFFCURVE",
"15 14 CURVE SMOOTH",
"11.134 14 OFFCURVE",
"8 10.866 OFFCURVE",
"8 7 CURVE SMOOTH",
"8 3.13397 OFFCURVE",
"11.134 0 OFFCURVE",
"15 0 CURVE SMOOTH"
);
},
{
closed = 1;
nodes = (
"132.866 0 OFFCURVE",
"136 3.13397 OFFCURVE",
"136 7 CURVE SMOOTH",
"136 10.866 OFFCURVE",
"132.866 14 OFFCURVE",
"129 14 CURVE SMOOTH",
"125.134 14 OFFCURVE",
"122 10.866 OFFCURVE",
"122 7 CURVE SMOOTH",
"122 3.13397 OFFCURVE",
"125.134 0 OFFCURVE",
"129 0 CURVE SMOOTH"
);
},
{
closed = 1;
nodes = (
"18.866 114 OFFCURVE",
"22 117.134 OFFCURVE",
"22 121 CURVE SMOOTH",
"22 124.866 OFFCURVE",
"18.866 128 OFFCURVE",
"15 128 CURVE SMOOTH",
"11.134 128 OFFCURVE",
"8 124.866 OFFCURVE",
"8 121 CURVE SMOOTH",
"8 117.134 OFFCURVE",
"11.134 114 OFFCURVE",
"15 114 CURVE SMOOTH"
);
},
{
closed = 1;
nodes = (
"132.866 114 OFFCURVE",
"136 117.134 OFFCURVE",
"136 121 CURVE SMOOTH",
"136 124.866 OFFCURVE",
"132.866 128 OFFCURVE",
"129 128 CURVE SMOOTH",
"125.134 128 OFFCURVE",
"122 124.866 OFFCURVE",
"122 121 CURVE SMOOTH",
"122 117.134 OFFCURVE",
"125.134 114 OFFCURVE",
"129 114 CURVE SMOOTH"
);
}
);
width = 144;
}
);
unicode = 0048;
},
{
glyphname = J;
lastChange = "2013-12-06 20:42:59 +0000";
layers = (
{
layerId = "940E2F63-624A-4C3D-A909-721782B4CF41";
name = Regular;
paths = (
{
closed = 1;
nodes = (
"72 128 LINE SMOOTH",
"68.134 128 OFFCURVE",
"65 124.866 OFFCURVE",
"65 121 CURVE SMOOTH",
"65 117.134 OFFCURVE",
"68.134 114 OFFCURVE",
"72 114 CURVE SMOOTH",
"122 114 LINE",
"122 14 LINE",
"15 14 LINE SMOOTH",
"11.134 14 OFFCURVE",
"8 10.866 OFFCURVE",
"8 7 CURVE SMOOTH",
"8 3.134 OFFCURVE",
"11.134 0 OFFCURVE",
"15 0 CURVE SMOOTH",
"129 0 LINE SMOOTH",
"132.866 0 OFFCURVE",
"136 3.134 OFFCURVE",
"136 7 CURVE SMOOTH",
"136 121 LINE SMOOTH",
"136 124.866 OFFCURVE",
"132.866 128 OFFCURVE",
"129 128 CURVE SMOOTH"
);
}
);
width = 144;
}
);
unicode = 004A;
},
{
glyphname = K;
lastChange = "2013-12-06 20:44:02 +0000";
layers = (
{
layerId = "940E2F63-624A-4C3D-A909-721782B4CF41";
name = Regular;
paths = (
{
closed = 1;
nodes = (
"129 114 LINE",
"129 128 LINE",
"72 128 LINE",
"65 121 LINE",
"65 71 LINE",
"22 71 LINE",
"22 121 LINE",
"8 121 LINE",
"8 7 LINE",
"22 7 LINE",
"22 57 LINE",
"122 57 LINE",
"122 7 LINE",
"136 7 LINE",
"136 64 LINE",
"129 71 LINE",
"79 71 LINE",
"79 114 LINE"
);
},
{
closed = 1;
nodes = (
"18.866 0 OFFCURVE",
"22 3.13397 OFFCURVE",
"22 7 CURVE SMOOTH",
"22 10.866 OFFCURVE",
"18.866 14 OFFCURVE",
"15 14 CURVE SMOOTH",
"11.134 14 OFFCURVE",
"8 10.866 OFFCURVE",
"8 7 CURVE SMOOTH",
"8 3.13397 OFFCURVE",
"11.134 0 OFFCURVE",
"15 0 CURVE SMOOTH"
);
},
{
closed = 1;
nodes = (
"132.866 0 OFFCURVE",
"136 3.13397 OFFCURVE",
"136 7 CURVE SMOOTH",
"136 10.866 OFFCURVE",
"132.866 14 OFFCURVE",
"129 14 CURVE SMOOTH",
"125.134 14 OFFCURVE",
"122 10.866 OFFCURVE",
"122 7 CURVE SMOOTH",
"122 3.13397 OFFCURVE",
"125.134 0 OFFCURVE",
"129 0 CURVE SMOOTH"
);
},
{
closed = 1;
nodes = (
"18.866 114 OFFCURVE",
"22 117.134 OFFCURVE",
"22 121 CURVE SMOOTH",
"22 124.866 OFFCURVE",
"18.866 128 OFFCURVE",
"15 128 CURVE SMOOTH",
"11.134 128 OFFCURVE",
"8 124.866 OFFCURVE",
"8 121 CURVE SMOOTH",
"8 117.134 OFFCURVE",
"11.134 114 OFFCURVE",
"15 114 CURVE SMOOTH"
);
},
{
closed = 1;
nodes = (
"75.866 114 OFFCURVE",
"79 117.134 OFFCURVE",
"79 121 CURVE SMOOTH",
"79 124.866 OFFCURVE",
"75.866 128 OFFCURVE",
"72 128 CURVE SMOOTH",
"68.134 128 OFFCURVE",
"65 124.866 OFFCURVE",
"65 121 CURVE SMOOTH",
"65 117.134 OFFCURVE",
"68.134 114 OFFCURVE",
"72 114 CURVE SMOOTH"
);
},
{
closed = 1;
nodes = (
"132.866 114 OFFCURVE",
"136 117.134 OFFCURVE",
"136 121 CURVE SMOOTH",
"136 124.866 OFFCURVE",
"132.866 128 OFFCURVE",
"129 128 CURVE SMOOTH",
"125.134 128 OFFCURVE",
"122 124.866 OFFCURVE",
"122 121 CURVE SMOOTH",
"122 117.134 OFFCURVE",
"125.134 114 OFFCURVE",
"129 114 CURVE SMOOTH"
);
},
{
closed = 1;
nodes = (
"132.866 57 OFFCURVE",
"136 60.134 OFFCURVE",
"136 64 CURVE SMOOTH",
"136 67.866 OFFCURVE",
"132.866 71 OFFCURVE",
"129 71 CURVE SMOOTH",
"125.134 71 OFFCURVE",
"122 67.866 OFFCURVE",
"122 64 CURVE SMOOTH",
"122 60.134 OFFCURVE",
"125.134 57 OFFCURVE",
"129 57 CURVE SMOOTH"
);
}
);
width = 144;
}
);
unicode = 004B;
},
{
glyphname = L;
lastChange = "2013-12-06 20:44:39 +0000";
layers = (
{
layerId = "940E2F63-624A-4C3D-A909-721782B4CF41";
name = Regular;
paths = (
{
closed = 1;
nodes = (
"129 0 LINE",
"129 14 LINE",
"22 14 LINE",
"22 121 LINE",
"8 121 LINE",
"8 7 LINE",
"15 0 LINE"
);
},
{
closed = 1;
nodes = (
"18.866 114 OFFCURVE",
"22 117.134 OFFCURVE",
"22 121 CURVE SMOOTH",
"22 124.866 OFFCURVE",
"18.866 128 OFFCURVE",
"15 128 CURVE SMOOTH",
"11.134 128 OFFCURVE",
"8 124.866 OFFCURVE",
"8 121 CURVE SMOOTH",
"8 117.134 OFFCURVE",
"11.134 114 OFFCURVE",
"15 114 CURVE SMOOTH"
);
},
{
closed = 1;
nodes = (
"132.866 0 OFFCURVE",
"136 3.13397 OFFCURVE",
"136 7 CURVE SMOOTH",
"136 10.866 OFFCURVE",
"132.866 14 OFFCURVE",
"129 14 CURVE SMOOTH",
"125.134 14 OFFCURVE",
"122 10.866 OFFCURVE",
"122 7 CURVE SMOOTH",
"122 3.13397 OFFCURVE",
"125.134 0 OFFCURVE",
"129 0 CURVE SMOOTH"
);
},
{
closed = 1;
nodes = (
"18.866 0 OFFCURVE",
"22 3.13397 OFFCURVE",
"22 7 CURVE SMOOTH",
"22 10.866 OFFCURVE",
"18.866 14 OFFCURVE",
"15 14 CURVE SMOOTH",
"11.134 14 OFFCURVE",
"8 10.866 OFFCURVE",
"8 7 CURVE SMOOTH",
"8 3.13397 OFFCURVE",
"11.134 0 OFFCURVE",
"15 0 CURVE SMOOTH"
);
}
);
width = 144;
}
);
unicode = 004C;
},
{
glyphname = M;
lastChange = "2013-12-06 20:45:26 +0000";
layers = (
{
layerId = "940E2F63-624A-4C3D-A909-721782B4CF41";
name = Regular;
paths = (
{
closed = 1;
nodes = (
"129 128 LINE",
"15 128 LINE",
"8 121 LINE",
"8 7 LINE",
"22 7 LINE",
"22 114 LINE",
"65 114 LINE",
"65 7 LINE",
"79 7 LINE",
"79 114 LINE",
"122 114 LINE",
"122 7 LINE",
"136 7 LINE",
"136 121 LINE"
);
},
{
closed = 1;
nodes = (
"18.866 0 OFFCURVE",
"22 3.13397 OFFCURVE",
"22 7 CURVE SMOOTH",
"22 10.866 OFFCURVE",
"18.866 14 OFFCURVE",
"15 14 CURVE SMOOTH",
"11.134 14 OFFCURVE",
"8 10.866 OFFCURVE",
"8 7 CURVE SMOOTH",
"8 3.13397 OFFCURVE",
"11.134 0 OFFCURVE",
"15 0 CURVE SMOOTH"
);
},
{
closed = 1;
nodes = (
"75.866 0 OFFCURVE",
"79 3.13397 OFFCURVE",
"79 7 CURVE SMOOTH",
"79 10.866 OFFCURVE",
"75.866 14 OFFCURVE",
"72 14 CURVE SMOOTH",
"68.134 14 OFFCURVE",
"65 10.866 OFFCURVE",
"65 7 CURVE SMOOTH",
"65 3.13397 OFFCURVE",
"68.134 0 OFFCURVE",
"72 0 CURVE SMOOTH"
);
},
{
closed = 1;
nodes = (
"132.866 0 OFFCURVE",
"136 3.13397 OFFCURVE",
"136 7 CURVE SMOOTH",
"136 10.866 OFFCURVE",
"132.866 14 OFFCURVE",
"129 14 CURVE SMOOTH",
"125.134 14 OFFCURVE",
"122 10.866 OFFCURVE",
"122 7 CURVE SMOOTH",
"122 3.13397 OFFCURVE",
"125.134 0 OFFCURVE",
"129 0 CURVE SMOOTH"
);
},
{
closed = 1;
nodes = (
"18.866 114 OFFCURVE",
"22 117.134 OFFCURVE",
"22 121 CURVE SMOOTH",
"22 124.866 OFFCURVE",
"18.866 128 OFFCURVE",
"15 128 CURVE SMOOTH",
"11.134 128 OFFCURVE",
"8 124.866 OFFCURVE",
"8 121 CURVE SMOOTH",
"8 117.134 OFFCURVE",
"11.134 114 OFFCURVE",
"15 114 CURVE SMOOTH"
);
},
{
closed = 1;
nodes = (
"132.866 114 OFFCURVE",
"136 117.134 OFFCURVE",
"136 121 CURVE SMOOTH",
"136 124.866 OFFCURVE",
"132.866 128 OFFCURVE",
"129 128 CURVE SMOOTH",
"125.134 128 OFFCURVE",
"122 124.866 OFFCURVE",
"122 121 CURVE SMOOTH",
"122 117.134 OFFCURVE",
"125.134 114 OFFCURVE",
"129 114 CURVE SMOOTH"
);
}
);
width = 144;
}
);
unicode = 004D;
},
{
glyphname = N;
lastChange = "2013-12-06 20:48:58 +0000";
layers = (
{
layerId = "940E2F63-624A-4C3D-A909-721782B4CF41";
name = Regular;
paths = (
{
closed = 1;
nodes = (
"122 121 LINE",
"122 14 LINE",
"79 14 LINE",
"79 121 LINE",
"72 128 LINE",
"15 128 LINE",
"8 121 LINE",
"8 7 LINE",
"22 7 LINE",
"22 114 LINE",
"65 114 LINE",
"65 7 LINE",
"72 0 LINE",
"129 0 LINE",
"136 7 LINE",
"136 121 LINE"
);
},
{
closed = 1;
nodes = (
"18.866 0 OFFCURVE",
"22 3.13397 OFFCURVE",
"22 7 CURVE SMOOTH",
"22 10.866 OFFCURVE",
"18.866 14 OFFCURVE",
"15 14 CURVE SMOOTH",
"11.134 14 OFFCURVE",
"8 10.866 OFFCURVE",
"8 7 CURVE SMOOTH",
"8 3.13397 OFFCURVE",
"11.134 0 OFFCURVE",
"15 0 CURVE SMOOTH"
);
},
{
closed = 1;
nodes = (
"18.866 114 OFFCURVE",
"22 117.134 OFFCURVE",
"22 121 CURVE SMOOTH",
"22 124.866 OFFCURVE",
"18.866 128 OFFCURVE",
"15 128 CURVE SMOOTH",
"11.134 128 OFFCURVE",
"8 124.866 OFFCURVE",
"8 121 CURVE SMOOTH",
"8 117.134 OFFCURVE",
"11.134 114 OFFCURVE",
"15 114 CURVE SMOOTH"
);
},
{
closed = 1;
nodes = (
"75.866 114 OFFCURVE",
"79 117.134 OFFCURVE",
"79 121 CURVE SMOOTH",
"79 124.866 OFFCURVE",
"75.866 128 OFFCURVE",
"72 128 CURVE SMOOTH",
"68.134 128 OFFCURVE",
"65 124.866 OFFCURVE",
"65 121 CURVE SMOOTH",
"65 117.134 OFFCURVE",
"68.134 114 OFFCURVE",
"72 114 CURVE SMOOTH"
);
},
{
closed = 1;
nodes = (
"75.866 0 OFFCURVE",
"79 3.13397 OFFCURVE",
"79 7 CURVE SMOOTH",
"79 10.866 OFFCURVE",
"75.866 14 OFFCURVE",
"72 14 CURVE SMOOTH",
"68.134 14 OFFCURVE",
"65 10.866 OFFCURVE",
"65 7 CURVE SMOOTH",
"65 3.13397 OFFCURVE",
"68.134 0 OFFCURVE",
"72 0 CURVE SMOOTH"
);
},
{
closed = 1;
nodes = (
"132.866 0 OFFCURVE",
"136 3.13397 OFFCURVE",
"136 7 CURVE SMOOTH",
"136 10.866 OFFCURVE",
"132.866 14 OFFCURVE",
"129 14 CURVE SMOOTH",
"125.134 14 OFFCURVE",
"122 10.866 OFFCURVE",
"122 7 CURVE SMOOTH",
"122 3.13397 OFFCURVE",
"125.134 0 OFFCURVE",
"129 0 CURVE SMOOTH"
);
},
{
closed = 1;
nodes = (
"132.866 114 OFFCURVE",
"136 117.134 OFFCURVE",
"136 121 CURVE SMOOTH",
"136 124.866 OFFCURVE",
"132.866 128 OFFCURVE",
"129 128 CURVE SMOOTH",
"125.134 128 OFFCURVE",
"122 124.866 OFFCURVE",
"122 121 CURVE SMOOTH",
"122 117.134 OFFCURVE",
"125.134 114 OFFCURVE",
"129 114 CURVE SMOOTH"
);
}
);
width = 144;
}
);
unicode = 004E;
},
{
glyphname = O;
lastChange = "2013-12-06 21:06:43 +0000";
layers = (
{
layerId = "940E2F63-624A-4C3D-A909-721782B4CF41";
name = Regular;
paths = (
{
closed = 1;
nodes = (
"15 128 LINE SMOOTH",
"11.134 128 OFFCURVE",
"8 124.866 OFFCURVE",
"8 121 CURVE SMOOTH",
"8 7.055 LINE SMOOTH",
"8 3.1347 OFFCURVE",
"11.134 0 OFFCURVE",
"15 0 CURVE SMOOTH",
"129 0 LINE SMOOTH",
"132.866 0 OFFCURVE",
"136 3.1347 OFFCURVE",
"136 7 CURVE SMOOTH",
"136 121 LINE SMOOTH",
"136 124.867 OFFCURVE",
"132.866 128 OFFCURVE",
"129 128 CURVE SMOOTH"
);
},
{
closed = 1;
nodes = (
"22 114 LINE",
"122 114 LINE",
"122 14 LINE",
"22 14 LINE"
);
}
);
width = 144;
}
);
unicode = 004F;
},
{
glyphname = P;
lastChange = "2013-12-06 21:06:53 +0000";
layers = (
{
layerId = "940E2F63-624A-4C3D-A909-721782B4CF41";
name = Regular;
paths = (
{
closed = 1;
nodes = (
"15 128 LINE SMOOTH",
"11.134 128 OFFCURVE",
"8 124.866 OFFCURVE",
"8 121 CURVE SMOOTH",
"8 7 LINE SMOOTH",
"8 3.134 OFFCURVE",
"11.134 0 OFFCURVE",
"15 0 CURVE SMOOTH",
"18.866 0 OFFCURVE",
"22 3.134 OFFCURVE",
"22 7 CURVE SMOOTH",
"22 114 LINE",
"122 114 LINE",
"122 71 LINE",
"72 71 LINE SMOOTH",
"68.134 71 OFFCURVE",
"65 67.866 OFFCURVE",
"65 64 CURVE SMOOTH",
"65 60.134 OFFCURVE",
"68.134 57 OFFCURVE",
"72 57 CURVE SMOOTH",
"129 57 LINE SMOOTH",
"132.866 57 OFFCURVE",
"136 60.134 OFFCURVE",
"136 64 CURVE SMOOTH",
"136 121 LINE SMOOTH",
"136 124.866 OFFCURVE",
"132.866 128 OFFCURVE",
"129 128 CURVE SMOOTH"
);
}
);
width = 144;
}
);
unicode = 0050;
},
{
glyphname = Q;
lastChange = "2013-12-06 21:07:04 +0000";
layers = (
{
layerId = "940E2F63-624A-4C3D-A909-721782B4CF41";
name = Regular;
paths = (
{
closed = 1;
nodes = (
"15 128 LINE SMOOTH",
"11.134 128 OFFCURVE",
"8 124.866 OFFCURVE",
"8 121 CURVE SMOOTH",
"8 7.055 LINE SMOOTH",
"8 3.135 OFFCURVE",
"11.134 0 OFFCURVE",
"15 0 CURVE SMOOTH",
"129 0 LINE SMOOTH",
"132.866 0 OFFCURVE",
"136 3.135 OFFCURVE",
"136 7 CURVE SMOOTH",
"136 121 LINE SMOOTH",
"136 124.867 OFFCURVE",
"132.866 128 OFFCURVE",
"129 128 CURVE SMOOTH"
);
},
{
closed = 1;
nodes = (
"122 14 LINE",
"79 14 LINE",
"79 64 LINE SMOOTH",
"79 67.866 OFFCURVE",
"75.866 71 OFFCURVE",
"72 71 CURVE SMOOTH",
"68.134 71 OFFCURVE",
"65 67.866 OFFCURVE",
"65 64 CURVE SMOOTH",
"65 14 LINE",
"22 14 LINE",
"22 114 LINE",
"122 114 LINE"
);
}
);
width = 144;
}
);
unicode = 0051;
},
{
glyphname = R;
lastChange = "2013-12-06 21:08:24 +0000";
layers = (
{
layerId = "940E2F63-624A-4C3D-A909-721782B4CF41";
name = Regular;
paths = (
{
closed = 1;
nodes = (
"129 57 LINE",
"136 64 LINE",
"136 121 LINE",
"129 128 LINE",
"15 128 LINE",
"8 121 LINE",
"8 7 LINE",
"22 7 LINE",
"22 114 LINE",
"122 114 LINE",
"122 71 LINE",
"72 71 LINE",
"65 64 LINE",
"65 7 LINE",
"72 0 LINE",
"129 0 LINE",
"129 14 LINE",
"79 14 LINE",
"79 57 LINE"
);
},
{
closed = 1;
nodes = (
"18.866 0 OFFCURVE",
"22 3.13397 OFFCURVE",
"22 7 CURVE SMOOTH",
"22 10.866 OFFCURVE",
"18.866 14 OFFCURVE",
"15 14 CURVE SMOOTH",
"11.134 14 OFFCURVE",
"8 10.866 OFFCURVE",
"8 7 CURVE SMOOTH",
"8 3.13397 OFFCURVE",
"11.134 0 OFFCURVE",
"15 0 CURVE SMOOTH"
);
},
{
closed = 1;
nodes = (
"75.866 0 OFFCURVE",
"79 3.13397 OFFCURVE",
"79 7 CURVE SMOOTH",
"79 10.866 OFFCURVE",
"75.866 14 OFFCURVE",
"72 14 CURVE SMOOTH",
"68.134 14 OFFCURVE",
"65 10.866 OFFCURVE",
"65 7 CURVE SMOOTH",
"65 3.13397 OFFCURVE",
"68.134 0 OFFCURVE",
"72 0 CURVE SMOOTH"
);
},
{
closed = 1;
nodes = (
"132.866 0 OFFCURVE",
"136 3.13397 OFFCURVE",
"136 7 CURVE SMOOTH",
"136 10.866 OFFCURVE",
"132.866 14 OFFCURVE",
"129 14 CURVE SMOOTH",
"125.134 14 OFFCURVE",
"122 10.866 OFFCURVE",
"122 7 CURVE SMOOTH",
"122 3.13397 OFFCURVE",
"125.134 0 OFFCURVE",
"129 0 CURVE SMOOTH"
);
},
{
closed = 1;
nodes = (
"75.866 57 OFFCURVE",
"79 60.134 OFFCURVE",
"79 64 CURVE SMOOTH",
"79 67.866 OFFCURVE",
"75.866 71 OFFCURVE",
"72 71 CURVE SMOOTH",
"68.134 71 OFFCURVE",
"65 67.866 OFFCURVE",
"65 64 CURVE SMOOTH",
"65 60.134 OFFCURVE",
"68.134 57 OFFCURVE",
"72 57 CURVE SMOOTH"
);
},
{
closed = 1;
nodes = (
"132.866 57 OFFCURVE",
"136 60.134 OFFCURVE",
"136 64 CURVE SMOOTH",
"136 67.866 OFFCURVE",
"132.866 71 OFFCURVE",
"129 71 CURVE SMOOTH",
"125.134 71 OFFCURVE",
"122 67.866 OFFCURVE",
"122 64 CURVE SMOOTH",
"122 60.134 OFFCURVE",
"125.134 57 OFFCURVE",
"129 57 CURVE SMOOTH"
);
},
{
closed = 1;
nodes = (
"18.866 114 OFFCURVE",
"22 117.134 OFFCURVE",
"22 121 CURVE SMOOTH",
"22 124.866 OFFCURVE",
"18.866 128 OFFCURVE",
"15 128 CURVE SMOOTH",
"11.134 128 OFFCURVE",
"8 124.866 OFFCURVE",
"8 121 CURVE SMOOTH",
"8 117.134 OFFCURVE",
"11.134 114 OFFCURVE",
"15 114 CURVE SMOOTH"
);
},
{
closed = 1;
nodes = (
"132.866 114 OFFCURVE",
"136 117.134 OFFCURVE",
"136 121 CURVE SMOOTH",
"136 124.866 OFFCURVE",
"132.866 128 OFFCURVE",
"129 128 CURVE SMOOTH",
"125.134 128 OFFCURVE",
"122 124.866 OFFCURVE",
"122 121 CURVE SMOOTH",
"122 117.134 OFFCURVE",
"125.134 114 OFFCURVE",
"129 114 CURVE SMOOTH"
);
}
);
width = 144;
}
);
unicode = 0052;
},
{
glyphname = T;
lastChange = "2013-12-06 21:08:50 +0000";
layers = (
{
layerId = "940E2F63-624A-4C3D-A909-721782B4CF41";
name = Regular;
paths = (
{
closed = 1;
nodes = (
"15 128 LINE",
"15 114 LINE",
"65 114 LINE",
"65 7 LINE",
"79 7 LINE",
"79 114 LINE",
"129 114 LINE",
"129 128 LINE"
);
},
{
closed = 1;
nodes = (
"18.866 114 OFFCURVE",
"22 117.134 OFFCURVE",
"22 121 CURVE SMOOTH",
"22 124.866 OFFCURVE",
"18.866 128 OFFCURVE",
"15 128 CURVE SMOOTH",
"11.134 128 OFFCURVE",
"8 124.866 OFFCURVE",
"8 121 CURVE SMOOTH",
"8 117.134 OFFCURVE",
"11.134 114 OFFCURVE",
"15 114 CURVE SMOOTH"
);
},
{
closed = 1;
nodes = (
"132.866 114 OFFCURVE",
"136 117.134 OFFCURVE",
"136 121 CURVE SMOOTH",
"136 124.866 OFFCURVE",
"132.866 128 OFFCURVE",
"129 128 CURVE SMOOTH",
"125.134 128 OFFCURVE",
"122 124.866 OFFCURVE",
"122 121 CURVE SMOOTH",
"122 117.134 OFFCURVE",
"125.134 114 OFFCURVE",
"129 114 CURVE SMOOTH"
);
},
{
closed = 1;
nodes = (
"75.866 0 OFFCURVE",
"79 3.13397 OFFCURVE",
"79 7 CURVE SMOOTH",
"79 10.866 OFFCURVE",
"75.866 14 OFFCURVE",
"72 14 CURVE SMOOTH",
"68.134 14 OFFCURVE",
"65 10.866 OFFCURVE",
"65 7 CURVE SMOOTH",
"65 3.13397 OFFCURVE",
"68.134 0 OFFCURVE",
"72 0 CURVE SMOOTH"
);
}
);
width = 144;
}
);
unicode = 0054;
},
{
glyphname = V;
lastChange = "2013-12-06 21:10:19 +0000";
layers = (
{
layerId = "940E2F63-624A-4C3D-A909-721782B4CF41";
name = Regular;
paths = (
{
closed = 1;
nodes = (
"125.134 128 OFFCURVE",
"122 124.866 OFFCURVE",
"122 121 CURVE SMOOTH",
"122 71 LINE",
"72 71 LINE SMOOTH",
"68.134 71 OFFCURVE",
"65 67.866 OFFCURVE",
"65 64 CURVE SMOOTH",
"65 14 LINE",
"22 14 LINE",
"22 121 LINE SMOOTH",
"22 124.866 OFFCURVE",
"18.866 128 OFFCURVE",
"15 128 CURVE SMOOTH",
"11.134 128 OFFCURVE",
"8 124.866 OFFCURVE",
"8 121 CURVE SMOOTH",
"8 7.017 LINE SMOOTH",
"8 3.1342 OFFCURVE",
"11.134 0 OFFCURVE",
"15 0 CURVE SMOOTH",
"72 0 LINE SMOOTH",
"75.866 0 OFFCURVE",
"79 3.1342 OFFCURVE",
"79 7 CURVE SMOOTH",
"79 57 LINE",
"129 57 LINE SMOOTH",
"132.866 57 OFFCURVE",
"136 60.1342 OFFCURVE",
"136 64 CURVE SMOOTH",
"136 121 LINE SMOOTH",
"136 124.866 OFFCURVE",
"132.866 128 OFFCURVE",
"129 128 CURVE SMOOTH"
);
}
);
width = 144;
}
);
unicode = 0056;
},
{
glyphname = X;
lastChange = "2013-12-06 21:18:19 +0000";
layers = (
{
layerId = "940E2F63-624A-4C3D-A909-721782B4CF41";
name = Regular;
paths = (
{
closed = 1;
nodes = (
"125.134 71 OFFCURVE",
"122 67.866 OFFCURVE",
"122 64 CURVE SMOOTH",
"122 14 LINE",
"79 14 LINE",
"79 114 LINE",
"129 114 LINE SMOOTH",
"132.866 114 OFFCURVE",
"136 117.134 OFFCURVE",
"136 121 CURVE SMOOTH",
"136 124.866 OFFCURVE",
"132.866 128 OFFCURVE",
"129 128 CURVE SMOOTH",
"15 128 LINE SMOOTH",
"11.134 128 OFFCURVE",
"8 124.866 OFFCURVE",
"8 121 CURVE SMOOTH",
"8 64 LINE SMOOTH",
"8 60.134 OFFCURVE",
"11.134 57 OFFCURVE",
"15 57 CURVE SMOOTH",
"18.866 57 OFFCURVE",
"22 60.134 OFFCURVE",
"22 64 CURVE SMOOTH",
"22 114 LINE",
"65 114 LINE",
"65 14 LINE",
"15 14 LINE SMOOTH",
"11.134 14 OFFCURVE",
"8 10.866 OFFCURVE",
"8 7 CURVE SMOOTH",
"8 3.134 OFFCURVE",
"11.134 0 OFFCURVE",
"15 0 CURVE SMOOTH",
"127.905 0.0854 LINE",
"129 0 LINE",
"132.866 0 OFFCURVE",
"136 3.134 OFFCURVE",
"136 7 CURVE SMOOTH",
"136 64 LINE SMOOTH",
"136 67.866 OFFCURVE",
"132.866 71 OFFCURVE",
"129 71 CURVE SMOOTH"
);
}
);
width = 144;
}
);
unicode = 0058;
},
{
glyphname = Y;
lastChange = "2013-12-06 21:19:17 +0000";
layers = (
{
layerId = "940E2F63-624A-4C3D-A909-721782B4CF41";
name = Regular;
paths = (
{
closed = 1;
nodes = (
"125.134 128 OFFCURVE",
"122 124.866 OFFCURVE",
"122 121 CURVE SMOOTH",
"122 71 LINE",
"22 71 LINE",
"22 121 LINE SMOOTH",
"22 124.866 OFFCURVE",
"18.866 128 OFFCURVE",
"15 128 CURVE SMOOTH",
"11.134 128 OFFCURVE",
"8 124.866 OFFCURVE",
"8 121 CURVE SMOOTH",
"8 64 LINE SMOOTH",
"8 60.1624 OFFCURVE",
"11.0882 57.0467 OFFCURVE",
"14.9149 57.001 CURVE SMOOTH",
"122 56.9999 LINE",
"122 13.9999 LINE",
"15 13.9999 LINE SMOOTH",
"11.134 13.9999 OFFCURVE",
"8 10.8659 OFFCURVE",
"8 6.9999 CURVE SMOOTH",
"8 3.1339 OFFCURVE",
"11.134 0 OFFCURVE",
"15 0 CURVE SMOOTH",
"129 0 LINE SMOOTH",
"132.866 0 OFFCURVE",
"136 3.1339 OFFCURVE",
"136 6.9999 CURVE SMOOTH",
"136 121 LINE SMOOTH",
"136 124.866 OFFCURVE",
"132.866 128 OFFCURVE",
"129 128 CURVE SMOOTH"
);
}
);
width = 144;
}
);
unicode = 0059;
},
{
glyphname = zero;
lastChange = "2013-12-06 21:21:22 +0000";
layers = (
{
components = (
{
name = O;
transform = "{1, 0, 0, 1, 0, 0}";
}
);
layerId = "940E2F63-624A-4C3D-A909-721782B4CF41";
name = Regular;
paths = (
{
closed = 1;
nodes = (
"75.866 57 OFFCURVE",
"79 60.134 OFFCURVE",
"79 64 CURVE SMOOTH",
"79 67.866 OFFCURVE",
"75.866 71 OFFCURVE",
"72 71 CURVE SMOOTH",
"68.134 71 OFFCURVE",
"65 67.866 OFFCURVE",
"65 64 CURVE SMOOTH",
"65 60.134 OFFCURVE",
"68.134 57 OFFCURVE",
"72 57 CURVE SMOOTH"
);
}
);
width = 144;
}
);
unicode = 0030;
},
{
glyphname = one;
lastChange = "2013-12-06 21:22:53 +0000";
layers = (
{
layerId = "940E2F63-624A-4C3D-A909-721782B4CF41";
name = Regular;
paths = (
{
closed = 1;
nodes = (
"79 14 LINE",
"79 121 LINE SMOOTH",
"79 124.866 OFFCURVE",
"75.866 128 OFFCURVE",
"72 128 CURVE SMOOTH",
"15 128 LINE SMOOTH",
"11.134 128 OFFCURVE",
"8 124.866 OFFCURVE",
"8 121 CURVE SMOOTH",
"8 117.134 OFFCURVE",
"11.134 114 OFFCURVE",
"15 114 CURVE SMOOTH",
"65 114 LINE",
"65 14 LINE",
"15 14 LINE SMOOTH",
"11.134 14 OFFCURVE",
"8 10.866 OFFCURVE",
"8 7 CURVE SMOOTH",
"8 3.134 OFFCURVE",
"11.134 0 OFFCURVE",
"15 0 CURVE SMOOTH",
"129 0 LINE SMOOTH",
"132.866 0 OFFCURVE",
"136 3.134 OFFCURVE",
"136 7 CURVE SMOOTH",
"136 10.866 OFFCURVE",
"132.866 14 OFFCURVE",
"129 14 CURVE SMOOTH"
);
}
);
width = 144;
}
);
unicode = 0031;
},
{
glyphname = four;
lastChange = "2013-12-06 21:23:26 +0000";
layers = (
{
layerId = "940E2F63-624A-4C3D-A909-721782B4CF41";
name = Regular;
paths = (
{
closed = 1;
nodes = (
"122 121 LINE",
"122 71 LINE",
"22 71 LINE",
"22 121 LINE",
"8 121 LINE",
"8 64 LINE",
"15 57 LINE",
"122 57 LINE",
"122 7 LINE",
"136 7 LINE",
"136 121 LINE"
);
},
{
closed = 1;
nodes = (
"18.866 114 OFFCURVE",
"22 117.134 OFFCURVE",
"22 121 CURVE SMOOTH",
"22 124.866 OFFCURVE",
"18.866 128 OFFCURVE",
"15 128 CURVE SMOOTH",
"11.134 128 OFFCURVE",
"8 124.866 OFFCURVE",
"8 121 CURVE SMOOTH",
"8 117.134 OFFCURVE",
"11.134 114 OFFCURVE",
"15 114 CURVE SMOOTH"
);
},
{
closed = 1;
nodes = (
"132.866 114 OFFCURVE",
"136 117.134 OFFCURVE",
"136 121 CURVE SMOOTH",
"136 124.866 OFFCURVE",
"132.866 128 OFFCURVE",
"129 128 CURVE SMOOTH",
"125.134 128 OFFCURVE",
"122 124.866 OFFCURVE",
"122 121 CURVE SMOOTH",
"122 117.134 OFFCURVE",
"125.134 114 OFFCURVE",
"129 114 CURVE SMOOTH"
);
},
{
closed = 1;
nodes = (
"18.866 57 OFFCURVE",
"22 60.134 OFFCURVE",
"22 64 CURVE SMOOTH",
"22 67.866 OFFCURVE",
"18.866 71 OFFCURVE",
"15 71 CURVE SMOOTH",
"11.134 71 OFFCURVE",
"8 67.866 OFFCURVE",
"8 64 CURVE SMOOTH",
"8 60.134 OFFCURVE",
"11.134 57 OFFCURVE",
"15 57 CURVE SMOOTH"
);
},
{
closed = 1;
nodes = (
"132.866 0 OFFCURVE",
"136 3.13397 OFFCURVE",
"136 7 CURVE SMOOTH",
"136 10.866 OFFCURVE",
"132.866 14 OFFCURVE",
"129 14 CURVE SMOOTH",
"125.134 14 OFFCURVE",
"122 10.866 OFFCURVE",
"122 7 CURVE SMOOTH",
"122 3.13397 OFFCURVE",
"125.134 0 OFFCURVE",
"129 0 CURVE SMOOTH"
);
}
);
width = 144;
}
);
unicode = 0034;
},
{
glyphname = seven;
lastChange = "2013-12-06 21:24:34 +0000";
layers = (
{
layerId = "940E2F63-624A-4C3D-A909-721782B4CF41";
name = Regular;
paths = (
{
closed = 1;
nodes = (
"129 128 LINE",
"15 128 LINE",
"15 114 LINE",
"122 114 LINE",
"122 71 LINE",
"72 71 LINE",
"65 64 LINE",
"65 7 LINE",
"79 7 LINE",
"79 57 LINE",
"129 57 LINE",
"136 64 LINE",
"136 121 LINE"
);
},
{
closed = 1;
nodes = (
"75.866 0 OFFCURVE",
"79 3.13397 OFFCURVE",
"79 7 CURVE SMOOTH",
"79 10.866 OFFCURVE",
"75.866 14 OFFCURVE",
"72 14 CURVE SMOOTH",
"68.134 14 OFFCURVE",
"65 10.866 OFFCURVE",
"65 7 CURVE SMOOTH",
"65 3.13397 OFFCURVE",
"68.134 0 OFFCURVE",
"72 0 CURVE SMOOTH"
);
},
{
closed = 1;
nodes = (
"75.866 57 OFFCURVE",
"79 60.134 OFFCURVE",
"79 64 CURVE SMOOTH",
"79 67.866 OFFCURVE",
"75.866 71 OFFCURVE",
"72 71 CURVE SMOOTH",
"68.134 71 OFFCURVE",
"65 67.866 OFFCURVE",
"65 64 CURVE SMOOTH",
"65 60.134 OFFCURVE",
"68.134 57 OFFCURVE",
"72 57 CURVE SMOOTH"
);
},
{
closed = 1;
nodes = (
"132.866 57 OFFCURVE",
"136 60.134 OFFCURVE",
"136 64 CURVE SMOOTH",
"136 67.866 OFFCURVE",
"132.866 71 OFFCURVE",
"129 71 CURVE SMOOTH",
"125.134 71 OFFCURVE",
"122 67.866 OFFCURVE",
"122 64 CURVE SMOOTH",
"122 60.134 OFFCURVE",
"125.134 57 OFFCURVE",
"129 57 CURVE SMOOTH"
);
},
{
closed = 1;
nodes = (
"132.866 114 OFFCURVE",
"136 117.134 OFFCURVE",
"136 121 CURVE SMOOTH",
"136 124.866 OFFCURVE",
"132.866 128 OFFCURVE",
"129 128 CURVE SMOOTH",
"125.134 128 OFFCURVE",
"122 124.866 OFFCURVE",
"122 121 CURVE SMOOTH",
"122 117.134 OFFCURVE",
"125.134 114 OFFCURVE",
"129 114 CURVE SMOOTH"
);
},
{
closed = 1;
nodes = (
"18.866 114 OFFCURVE",
"22 117.134 OFFCURVE",
"22 121 CURVE SMOOTH",
"22 124.866 OFFCURVE",
"18.866 128 OFFCURVE",
"15 128 CURVE SMOOTH",
"11.134 128 OFFCURVE",
"8 124.866 OFFCURVE",
"8 121 CURVE SMOOTH",
"8 117.134 OFFCURVE",
"11.134 114 OFFCURVE",
"15 114 CURVE SMOOTH"
);
}
);
width = 144;
}
);
unicode = 0037;
},
{
glyphname = eight;
lastChange = "2013-12-06 21:25:02 +0000";
layers = (
{
layerId = "940E2F63-624A-4C3D-A909-721782B4CF41";
name = Regular;
paths = (
{
closed = 1;
nodes = (
"122 71 LINE",
"22 71 LINE",
"22 114 LINE",
"122 114 LINE"
);
},
{
closed = 1;
nodes = (
"122 14 LINE",
"22 14 LINE",
"22 57 LINE",
"122 57 LINE"
);
},
{
closed = 1;
nodes = (
"15 128 LINE SMOOTH",
"11.134 128 OFFCURVE",
"8 124.866 OFFCURVE",
"8 121 CURVE SMOOTH",
"8 7.055 LINE SMOOTH",
"8 3.135 OFFCURVE",
"11.134 0 OFFCURVE",
"15 0 CURVE SMOOTH",
"129 0 LINE SMOOTH",
"132.866 0 OFFCURVE",
"136 3.135 OFFCURVE",
"136 7 CURVE SMOOTH",
"136 121 LINE SMOOTH",
"136 124.867 OFFCURVE",
"132.866 128 OFFCURVE",
"129 128 CURVE SMOOTH"
);
}
);
width = 144;
}
);
unicode = 0038;
},
{
glyphname = asterisk;
lastChange = "2013-12-06 21:25:27 +0000";
layers = (
{
components = (
{
name = plus;
transform = "{1, 0, 0, 1, 0, 0}";
}
);
layerId = "940E2F63-624A-4C3D-A909-721782B4CF41";
name = Regular;
paths = (
{
closed = 1;
nodes = (
"18.866 0 OFFCURVE",
"22 3.13397 OFFCURVE",
"22 7 CURVE SMOOTH",
"22 10.866 OFFCURVE",
"18.866 14 OFFCURVE",
"15 14 CURVE SMOOTH",
"11.134 14 OFFCURVE",
"8 10.866 OFFCURVE",
"8 7 CURVE SMOOTH",
"8 3.13397 OFFCURVE",
"11.134 0 OFFCURVE",
"15 0 CURVE SMOOTH"
);
},
{
closed = 1;
nodes = (
"18.866 114 OFFCURVE",
"22 117.134 OFFCURVE",
"22 121 CURVE SMOOTH",
"22 124.866 OFFCURVE",
"18.866 128 OFFCURVE",
"15 128 CURVE SMOOTH",
"11.134 128 OFFCURVE",
"8 124.866 OFFCURVE",
"8 121 CURVE SMOOTH",
"8 117.134 OFFCURVE",
"11.134 114 OFFCURVE",
"15 114 CURVE SMOOTH"
);
},
{
closed = 1;
nodes = (
"132.866 114 OFFCURVE",
"136 117.134 OFFCURVE",
"136 121 CURVE SMOOTH",
"136 124.866 OFFCURVE",
"132.866 128 OFFCURVE",
"129 128 CURVE SMOOTH",
"125.134 128 OFFCURVE",
"122 124.866 OFFCURVE",
"122 121 CURVE SMOOTH",
"122 117.134 OFFCURVE",
"125.134 114 OFFCURVE",
"129 114 CURVE SMOOTH"
);
},
{
closed = 1;
nodes = (
"132.866 0 OFFCURVE",
"136 3.13397 OFFCURVE",
"136 7 CURVE SMOOTH",
"136 10.866 OFFCURVE",
"132.866 14 OFFCURVE",
"129 14 CURVE SMOOTH",
"125.134 14 OFFCURVE",
"122 10.866 OFFCURVE",
"122 7 CURVE SMOOTH",
"122 3.13397 OFFCURVE",
"125.134 0 OFFCURVE",
"129 0 CURVE SMOOTH"
);
}
);
width = 144;
}
);
unicode = 002A;
},
{
glyphname = backslash;
lastChange = "2013-12-06 21:25:56 +0000";
layers = (
{
layerId = "940E2F63-624A-4C3D-A909-721782B4CF41";
name = Regular;
paths = (
{
closed = 1;
nodes = (
"11.134 128 OFFCURVE",
"8 124.866 OFFCURVE",
"8 121 CURVE SMOOTH",
"8 7 LINE SMOOTH",
"8 3.134 OFFCURVE",
"11.134 0 OFFCURVE",
"15 0 CURVE SMOOTH",
"18.866 0 OFFCURVE",
"22 3.134 OFFCURVE",
"22 7 CURVE SMOOTH",
"22 121 LINE SMOOTH",
"22 124.866 OFFCURVE",
"18.866 128 OFFCURVE",
"15 128 CURVE SMOOTH"
);
},
{
closed = 1;
nodes = (
"68.134 128 OFFCURVE",
"65 124.866 OFFCURVE",
"65 121 CURVE SMOOTH",
"65 7 LINE SMOOTH",
"65 3.134 OFFCURVE",
"68.134 0 OFFCURVE",
"72 0 CURVE SMOOTH",
"75.866 0 OFFCURVE",
"79 3.134 OFFCURVE",
"79 7 CURVE SMOOTH",
"79 121 LINE SMOOTH",
"79 124.866 OFFCURVE",
"75.866 128 OFFCURVE",
"72 128 CURVE SMOOTH"
);
},
{
closed = 1;
nodes = (
"125.134 128 OFFCURVE",
"122 124.866 OFFCURVE",
"122 121 CURVE SMOOTH",
"122 7 LINE SMOOTH",
"122 3.134 OFFCURVE",
"125.134 0 OFFCURVE",
"129 0 CURVE SMOOTH",
"132.866 0 OFFCURVE",
"136 3.134 OFFCURVE",
"136 7 CURVE SMOOTH",
"136 121 LINE SMOOTH",
"136 124.866 OFFCURVE",
"132.866 128 OFFCURVE",
"129 128 CURVE SMOOTH"
);
}
);
width = 144;
}
);
unicode = 005C;
},
{
glyphname = bullet;
lastChange = "2013-12-06 21:29:51 +0000";
layers = (
{
layerId = "940E2F63-624A-4C3D-A909-721782B4CF41";
name = Regular;
paths = (
{
closed = 1;
nodes = (
"136 124.866 OFFCURVE",
"132.866 128 OFFCURVE",
"129 128 CURVE SMOOTH",
"15 128 LINE SMOOTH",
"11.134 128 OFFCURVE",
"8 124.866 OFFCURVE",
"8 121 CURVE SMOOTH",
"8 117.134 OFFCURVE",
"11.134 114 OFFCURVE",
"15 114 CURVE SMOOTH",
"129 114 LINE SMOOTH",
"132.866 114 OFFCURVE",
"136 117.134 OFFCURVE",
"136 121 CURVE SMOOTH"
);
},
{
closed = 1;
nodes = (
"136 67.866 OFFCURVE",
"132.866 71 OFFCURVE",
"129 71 CURVE SMOOTH",
"15 71 LINE SMOOTH",
"11.134 71 OFFCURVE",
"8 67.866 OFFCURVE",
"8 64 CURVE SMOOTH",
"8 60.134 OFFCURVE",
"11.134 57 OFFCURVE",
"15 57 CURVE SMOOTH",
"129 57 LINE SMOOTH",
"132.866 57 OFFCURVE",
"136 60.134 OFFCURVE",
"136 64 CURVE SMOOTH"
);
},
{
closed = 1;
nodes = (
"136 10.866 OFFCURVE",
"132.866 14 OFFCURVE",
"129 14 CURVE SMOOTH",
"15 14 LINE SMOOTH",
"11.134 14 OFFCURVE",
"8 10.866 OFFCURVE",
"8 7 CURVE SMOOTH",
"8 3.134 OFFCURVE",
"11.134 0 OFFCURVE",
"15 0 CURVE SMOOTH",
"129 0 LINE SMOOTH",
"132.866 0 OFFCURVE",
"136 3.134 OFFCURVE",
"136 7 CURVE SMOOTH"
);
}
);
width = 144;
}
);
unicode = 2022;
},
{
glyphname = comma;
lastChange = "2013-12-06 21:26:26 +0000";
layers = (
{
layerId = "940E2F63-624A-4C3D-A909-721782B4CF41";
name = Regular;
paths = (
{
closed = 1;
nodes = (
"15 128 LINE SMOOTH",
"11.134 128 OFFCURVE",
"8 124.866 OFFCURVE",
"8 121 CURVE SMOOTH",
"8 7.055 LINE SMOOTH",
"8 3.135 OFFCURVE",
"11.134 0 OFFCURVE",
"15 0 CURVE SMOOTH",
"129 0 LINE SMOOTH",
"132.866 0 OFFCURVE",
"136 3.135 OFFCURVE",
"136 7 CURVE SMOOTH",
"136 121 LINE SMOOTH",
"136 124.867 OFFCURVE",
"132.866 128 OFFCURVE",
"129 128 CURVE SMOOTH"
);
}
);
width = 144;
}
);
unicode = 002C;
},
{
glyphname = ellipsis;
lastChange = "2013-12-06 21:26:47 +0000";
layers = (
{
layerId = "940E2F63-624A-4C3D-A909-721782B4CF41";
name = Regular;
paths = (
{
closed = 1;
nodes = (
"136 124.866 OFFCURVE",
"132.866 128 OFFCURVE",
"129 128 CURVE SMOOTH",
"15 128 LINE SMOOTH",
"11.134 128 OFFCURVE",
"8 124.866 OFFCURVE",
"8 121 CURVE SMOOTH",
"8 117.134 OFFCURVE",
"11.134 114 OFFCURVE",
"15 114 CURVE SMOOTH",
"129 114 LINE SMOOTH",
"132.866 114 OFFCURVE",
"136 117.134 OFFCURVE",
"136 121 CURVE SMOOTH"
);
},
{
closed = 1;
nodes = (
"136 67.866 OFFCURVE",
"132.866 71 OFFCURVE",
"129 71 CURVE SMOOTH",
"15 71 LINE SMOOTH",
"11.134 71 OFFCURVE",
"8 67.866 OFFCURVE",
"8 64 CURVE SMOOTH",
"8 60.134 OFFCURVE",
"11.134 57 OFFCURVE",
"15 57 CURVE SMOOTH",
"129 57 LINE SMOOTH",
"132.866 57 OFFCURVE",
"136 60.134 OFFCURVE",
"136 64 CURVE SMOOTH"
);
},
{
closed = 1;
nodes = (
"18.866 0 OFFCURVE",
"22 3.13397 OFFCURVE",
"22 7 CURVE SMOOTH",
"22 10.866 OFFCURVE",
"18.866 14 OFFCURVE",
"15 14 CURVE SMOOTH",
"11.134 14 OFFCURVE",
"8 10.866 OFFCURVE",
"8 7 CURVE SMOOTH",
"8 3.13397 OFFCURVE",
"11.134 0 OFFCURVE",
"15 0 CURVE SMOOTH"
);
},
{
closed = 1;
nodes = (
"75.866 0 OFFCURVE",
"79 3.13397 OFFCURVE",
"79 7 CURVE SMOOTH",
"79 10.866 OFFCURVE",
"75.866 14 OFFCURVE",
"72 14 CURVE SMOOTH",
"68.134 14 OFFCURVE",
"65 10.866 OFFCURVE",
"65 7 CURVE SMOOTH",
"65 3.13397 OFFCURVE",
"68.134 0 OFFCURVE",
"72 0 CURVE SMOOTH"
);
},
{
closed = 1;
nodes = (
"132.866 0 OFFCURVE",
"136 3.13397 OFFCURVE",
"136 7 CURVE SMOOTH",
"136 10.866 OFFCURVE",
"132.866 14 OFFCURVE",
"129 14 CURVE SMOOTH",
"125.134 14 OFFCURVE",
"122 10.866 OFFCURVE",
"122 7 CURVE SMOOTH",
"122 3.13397 OFFCURVE",
"125.134 0 OFFCURVE",
"129 0 CURVE SMOOTH"
);
}
);
width = 144;
}
);
unicode = 2026;
},
{
glyphname = exclam;
lastChange = "2013-12-06 21:27:24 +0000";
layers = (
{
layerId = "940E2F63-624A-4C3D-A909-721782B4CF41";
name = Regular;
paths = (
{
closed = 1;
nodes = (
"18.866 0 OFFCURVE",
"22 3.134 OFFCURVE",
"22 7 CURVE SMOOTH",
"22 10.866 OFFCURVE",
"18.866 14 OFFCURVE",
"15 14 CURVE SMOOTH",
"11.134 14 OFFCURVE",
"8 10.866 OFFCURVE",
"8 7 CURVE SMOOTH",
"8 3.134 OFFCURVE",
"11.134 0 OFFCURVE",
"15 0 CURVE SMOOTH"
);
},
{
closed = 1;
nodes = (
"75.866 0 OFFCURVE",
"79 3.134 OFFCURVE",
"79 7 CURVE SMOOTH",
"79 10.866 OFFCURVE",
"75.866 14 OFFCURVE",
"72 14 CURVE SMOOTH",
"68.134 14 OFFCURVE",
"65 10.866 OFFCURVE",
"65 7 CURVE SMOOTH",
"65 3.134 OFFCURVE",
"68.134 0 OFFCURVE",
"72 0 CURVE SMOOTH"
);
},
{
closed = 1;
nodes = (
"132.866 0 OFFCURVE",
"136 3.134 OFFCURVE",
"136 7 CURVE SMOOTH",
"136 10.866 OFFCURVE",
"132.866 14 OFFCURVE",
"129 14 CURVE SMOOTH",
"125.134 14 OFFCURVE",
"122 10.866 OFFCURVE",
"122 7 CURVE SMOOTH",
"122 3.134 OFFCURVE",
"125.134 0 OFFCURVE",
"129 0 CURVE SMOOTH"
);
},
{
closed = 1;
nodes = (
"11.134 128 OFFCURVE",
"8 124.866 OFFCURVE",
"8 121 CURVE SMOOTH",
"8 64 LINE SMOOTH",
"8 60.134 OFFCURVE",
"11.134 57 OFFCURVE",
"15 57 CURVE SMOOTH",
"18.866 57 OFFCURVE",
"22 60.134 OFFCURVE",
"22 64 CURVE SMOOTH",
"22 121 LINE SMOOTH",
"22 124.866 OFFCURVE",
"18.866 128 OFFCURVE",
"15 128 CURVE SMOOTH"
);
},
{
closed = 1;
nodes = (
"125.134 128 OFFCURVE",
"122 124.866 OFFCURVE",
"122 121 CURVE SMOOTH",
"122 64 LINE SMOOTH",
"122 60.134 OFFCURVE",
"125.134 57 OFFCURVE",
"129 57 CURVE SMOOTH",
"132.866 57 OFFCURVE",
"136 60.134 OFFCURVE",
"136 64 CURVE SMOOTH",
"136 121 LINE SMOOTH",
"136 124.866 OFFCURVE",
"132.866 128 OFFCURVE",
"129 128 CURVE SMOOTH"
);
},
{
closed = 1;
nodes = (
"68.134 128 OFFCURVE",
"65 124.866 OFFCURVE",
"65 121 CURVE SMOOTH",
"65 64 LINE SMOOTH",
"65 60.134 OFFCURVE",
"68.134 57 OFFCURVE",
"72 57 CURVE SMOOTH",
"75.866 57 OFFCURVE",
"79 60.134 OFFCURVE",
"79 64 CURVE SMOOTH",
"79 121 LINE SMOOTH",
"79 124.866 OFFCURVE",
"75.866 128 OFFCURVE",
"72 128 CURVE SMOOTH"
);
}
);
width = 144;
}
);
unicode = 0021;
},
{
glyphname = numbersign;
lastChange = "2013-12-06 21:27:35 +0000";
layers = (
{
guideLines = (
{
position = "{-28, 89}";
showMeasurement = 1;
}
);
layerId = "940E2F63-624A-4C3D-A909-721782B4CF41";
name = Regular;
paths = (
{
closed = 1;
nodes = (
"22 114 LINE",
"65 114 LINE",
"65 71 LINE",
"22 71 LINE"
);
},
{
closed = 1;
nodes = (
"79 114 LINE",
"122 114 LINE",
"122 71 LINE",
"79 71 LINE"
);
},
{
closed = 1;
nodes = (
"22 57 LINE",
"65 57 LINE",
"65 14 LINE",
"22 14 LINE"
);
},
{
closed = 1;
nodes = (
"79 57 LINE",
"122 57 LINE",
"122 14 LINE",
"79 14 LINE"
);
},
{
closed = 1;
nodes = (
"15 128 LINE SMOOTH",
"11.134 128 OFFCURVE",
"8 124.866 OFFCURVE",
"8 121 CURVE SMOOTH",
"8 7.055 LINE SMOOTH",
"8 3.135 OFFCURVE",
"11.134 0 OFFCURVE",
"15 0 CURVE SMOOTH",
"129 0 LINE SMOOTH",
"132.866 0 OFFCURVE",
"136 3.135 OFFCURVE",
"136 7 CURVE SMOOTH",
"136 121 LINE SMOOTH",
"136 124.867 OFFCURVE",
"132.866 128 OFFCURVE",
"129 128 CURVE SMOOTH"
);
}
);
width = 144;
}
);
unicode = 0023;
},
{
glyphname = question;
lastChange = "2013-12-06 21:28:19 +0000";
layers = (
{
layerId = "940E2F63-624A-4C3D-A909-721782B4CF41";
name = Regular;
paths = (
{
closed = 1;
nodes = (
"15 128 LINE SMOOTH",
"11.134 128 OFFCURVE",
"8 124.866 OFFCURVE",
"8 121 CURVE SMOOTH",
"8 117.134 OFFCURVE",
"11.134 114 OFFCURVE",
"15 114 CURVE SMOOTH",
"122 114 LINE",
"122 71 LINE",
"72 71 LINE SMOOTH",
"68.134 71 OFFCURVE",
"65 67.866 OFFCURVE",
"65 64 CURVE SMOOTH",
"65 60.134 OFFCURVE",
"68.134 57 OFFCURVE",
"72 57 CURVE SMOOTH",
"129 57 LINE SMOOTH",
"132.866 57 OFFCURVE",
"136 60.134 OFFCURVE",
"136 64 CURVE SMOOTH",
"136 121 LINE SMOOTH",
"136 124.866 OFFCURVE",
"132.866 128 OFFCURVE",
"129 128 CURVE SMOOTH"
);
},
{
closed = 1;
nodes = (
"68.134 14 OFFCURVE",
"65 10.866 OFFCURVE",
"65 7 CURVE SMOOTH",
"65 3.134 OFFCURVE",
"68.134 0 OFFCURVE",
"72 0 CURVE SMOOTH",
"75.866 0 OFFCURVE",
"79 3.134 OFFCURVE",
"79 7 CURVE SMOOTH",
"79 10.866 OFFCURVE",
"75.866 14 OFFCURVE",
"72 14 CURVE SMOOTH"
);
}
);
width = 144;
}
);
unicode = 003F;
},
{
glyphname = braceleft;
lastChange = "2013-12-06 21:29:11 +0000";
layers = (
{
layerId = "940E2F63-624A-4C3D-A909-721782B4CF41";
name = Regular;
paths = (
{
closed = 1;
nodes = (
"79 14 LINE",
"79 114 LINE",
"129 114 LINE SMOOTH",
"132.866 114 OFFCURVE",
"136 117.134 OFFCURVE",
"136 121 CURVE SMOOTH",
"136 124.866 OFFCURVE",
"132.866 128 OFFCURVE",
"129 128 CURVE SMOOTH",
"72 128 LINE SMOOTH",
"68.134 128 OFFCURVE",
"65 124.866 OFFCURVE",
"65 121 CURVE SMOOTH",
"65 71 LINE",
"15 71 LINE SMOOTH",
"11.134 71 OFFCURVE",
"8 67.866 OFFCURVE",
"8 64 CURVE SMOOTH",
"8 60.134 OFFCURVE",
"11.134 57 OFFCURVE",
"15 57 CURVE SMOOTH",
"65 57 LINE",
"65 7 LINE SMOOTH",
"65 3.134 OFFCURVE",
"68.134 0 OFFCURVE",
"72 0 CURVE SMOOTH",
"129 0 LINE SMOOTH",
"132.866 0 OFFCURVE",
"136 3.134 OFFCURVE",
"136 7 CURVE SMOOTH",
"136 10.866 OFFCURVE",
"132.866 14 OFFCURVE",
"129 14 CURVE SMOOTH"
);
}
);
width = 144;
}
);
unicode = 007B;
},
{
color = 0;
glyphname = dollar;
lastChange = "2013-12-06 21:30:09 +0000";
layers = (
{
components = (
{
name = s;
transform = "{1, 0, 0, 1, 0, 0}";
}
);
layerId = "940E2F63-624A-4C3D-A909-721782B4CF41";
name = Regular;
paths = (
{
closed = 1;
nodes = (
"79 128 LINE",
"79 0 LINE",
"65 0 LINE",
"65 128 LINE"
);
}
);
width = 144;
}
);
unicode = 0024;
},
{
color = 0;
glyphname = euro;
lastChange = "2013-12-06 21:29:26 +0000";
layers = (
{
components = (
{
name = braceleft;
transform = "{1, 0, 0, 1, 0, 0}";
}
);
layerId = "940E2F63-624A-4C3D-A909-721782B4CF41";
name = Regular;
paths = (
{
closed = 1;
nodes = (
"56 57 LINE",
"129 57 LINE",
"129 71 LINE",
"56 71 LINE"
);
},
{
closed = 1;
nodes = (
"132.866 57 OFFCURVE",
"136 60.134 OFFCURVE",
"136 64 CURVE SMOOTH",
"136 67.866 OFFCURVE",
"132.866 71 OFFCURVE",
"129 71 CURVE SMOOTH",
"125.134 71 OFFCURVE",
"122 67.866 OFFCURVE",
"122 64 CURVE SMOOTH",
"122 60.134 OFFCURVE",
"125.134 57 OFFCURVE",
"129 57 CURVE SMOOTH"
);
}
);
width = 144;
}
);
unicode = 20AC;
},
{
glyphname = divide;
lastChange = "2013-12-06 21:30:04 +0000";
layers = (
{
layerId = "940E2F63-624A-4C3D-A909-721782B4CF41";
name = Regular;
paths = (
{
closed = 1;
nodes = (
"75.866 114 OFFCURVE",
"79 117.134 OFFCURVE",
"79 121 CURVE SMOOTH",
"79 124.866 OFFCURVE",
"75.866 128 OFFCURVE",
"72 128 CURVE SMOOTH",
"68.134 128 OFFCURVE",
"65 124.866 OFFCURVE",
"65 121 CURVE SMOOTH",
"65 117.134 OFFCURVE",
"68.134 114 OFFCURVE",
"72 114 CURVE SMOOTH"
);
},
{
closed = 1;
nodes = (
"75.866 0 OFFCURVE",
"79 3.13397 OFFCURVE",
"79 7 CURVE SMOOTH",
"79 10.866 OFFCURVE",
"75.866 14 OFFCURVE",
"72 14 CURVE SMOOTH",
"68.134 14 OFFCURVE",
"65 10.866 OFFCURVE",
"65 7 CURVE SMOOTH",
"65 3.13397 OFFCURVE",
"68.134 0 OFFCURVE",
"72 0 CURVE SMOOTH"
);
},
{
closed = 1;
nodes = (
"136 67.866 OFFCURVE",
"132.866 71 OFFCURVE",
"129 71 CURVE SMOOTH",
"15 71 LINE SMOOTH",
"11.134 71 OFFCURVE",
"8 67.866 OFFCURVE",
"8 64 CURVE SMOOTH",
"8 60.134 OFFCURVE",
"11.134 57 OFFCURVE",
"15 57 CURVE SMOOTH",
"129 57 LINE SMOOTH",
"132.866 57 OFFCURVE",
"136 60.134 OFFCURVE",
"136 64 CURVE SMOOTH"
);
}
);
width = 144;
}
);
unicode = 00F7;
},
{
color = 0;
glyphname = percent;
lastChange = "2013-12-06 21:31:11 +0000";
layers = (
{
layerId = "940E2F63-624A-4C3D-A909-721782B4CF41";
name = Regular;
paths = (
{
closed = 1;
nodes = (
"125.134 128 OFFCURVE",
"122 124.866 OFFCURVE",
"122 121 CURVE SMOOTH",
"122 71 LINE",
"15 71 LINE SMOOTH",
"11.134 71 OFFCURVE",
"8 67.866 OFFCURVE",
"8 64 CURVE SMOOTH",
"8 7 LINE SMOOTH",
"8 3.134 OFFCURVE",
"11.134 0 OFFCURVE",
"15 0 CURVE SMOOTH",
"18.866 0 OFFCURVE",
"22 3.134 OFFCURVE",
"22 7 CURVE SMOOTH",
"22 57 LINE",
"129 57 LINE SMOOTH",
"132.866 57 OFFCURVE",
"136 60.134 OFFCURVE",
"136 64 CURVE SMOOTH",
"136 121 LINE SMOOTH",
"136 124.866 OFFCURVE",
"132.866 128 OFFCURVE",
"129 128 CURVE SMOOTH"
);
},
{
closed = 1;
nodes = (
"72 114 LINE SMOOTH",
"75.866 114 OFFCURVE",
"79 117.134 OFFCURVE",
"79 121 CURVE SMOOTH",
"79 124.866 OFFCURVE",
"75.866 128 OFFCURVE",
"72 128 CURVE SMOOTH",
"15 128 LINE SMOOTH",
"11.134 128 OFFCURVE",
"8 124.866 OFFCURVE",
"8 121 CURVE SMOOTH",
"8 117.134 OFFCURVE",
"11.134 114 OFFCURVE",
"15 114 CURVE SMOOTH"
);
},
{
closed = 1;
nodes = (
"72 14 LINE SMOOTH",
"68.134 14 OFFCURVE",
"65 10.866 OFFCURVE",
"65 7 CURVE SMOOTH",
"65 3.134 OFFCURVE",
"68.134 0 OFFCURVE",
"72 0 CURVE SMOOTH",
"129 0 LINE SMOOTH",
"132.866 0 OFFCURVE",
"136 3.134 OFFCURVE",
"136 7 CURVE SMOOTH",
"136 10.866 OFFCURVE",
"132.866 14 OFFCURVE",
"129 14 CURVE SMOOTH"
);
}
);
width = 144;
}
);
unicode = 0025;
},
{
glyphname = plus;
lastChange = "2013-12-06 21:31:25 +0000";
layers = (
{
layerId = "940E2F63-624A-4C3D-A909-721782B4CF41";
name = Regular;
paths = (
{
closed = 1;
nodes = (
"79 71 LINE",
"79 121 LINE SMOOTH",
"79 124.866 OFFCURVE",
"75.866 128 OFFCURVE",
"72 128 CURVE SMOOTH",
"68.134 128 OFFCURVE",
"65 124.866 OFFCURVE",
"65 121 CURVE SMOOTH",
"65 71 LINE",
"15 71 LINE SMOOTH",
"11.134 71 OFFCURVE",
"8 67.866 OFFCURVE",
"8 64 CURVE SMOOTH",
"8 60.134 OFFCURVE",
"11.134 57 OFFCURVE",
"15 57 CURVE SMOOTH",
"65 57 LINE",
"65 7 LINE SMOOTH",
"65 3.134 OFFCURVE",
"68.134 0 OFFCURVE",
"72 0 CURVE SMOOTH",
"75.866 0 OFFCURVE",
"79 3.134 OFFCURVE",
"79 7 CURVE SMOOTH",
"79 57 LINE",
"129 57 LINE SMOOTH",
"132.866 57 OFFCURVE",
"136 60.134 OFFCURVE",
"136 64 CURVE SMOOTH",
"136 67.866 OFFCURVE",
"132.866 71 OFFCURVE",
"129 71 CURVE SMOOTH"
);
}
);
width = 144;
}
);
unicode = 002B;
},
{
glyphname = ampersand;
lastChange = "2013-12-06 21:32:30 +0000";
layers = (
{
layerId = "940E2F63-624A-4C3D-A909-721782B4CF41";
name = Regular;
paths = (
{
closed = 1;
nodes = (
"129 57 LINE SMOOTH",
"132.866 57 OFFCURVE",
"136 60.134 OFFCURVE",
"136 64 CURVE SMOOTH",
"136 121 LINE SMOOTH",
"136 124.866 OFFCURVE",
"132.866 128 OFFCURVE",
"129 128 CURVE SMOOTH",
"72 128 LINE SMOOTH",
"68.134 128 OFFCURVE",
"65 124.866 OFFCURVE",
"65 121 CURVE SMOOTH",
"65 71 LINE",
"15 71 LINE SMOOTH",
"11.134 71 OFFCURVE",
"8 67.866 OFFCURVE",
"8 64 CURVE SMOOTH",
"8 6.77 LINE SMOOTH",
"8.1279 3.0083 OFFCURVE",
"11.2124 0 OFFCURVE",
"15 0 CURVE SMOOTH",
"129 0 LINE SMOOTH",
"132.866 0 OFFCURVE",
"136 3.134 OFFCURVE",
"136 7 CURVE SMOOTH",
"136 10.866 OFFCURVE",
"132.866 14 OFFCURVE",
"129 14 CURVE SMOOTH",
"22 14 LINE",
"22 57 LINE"
);
},
{
closed = 1;
nodes = (
"122 71 LINE",
"79 71 LINE",
"79 114 LINE",
"122 114 LINE"
);
}
);
width = 144;
}
);
unicode = 0026;
},
{
glyphname = degree;
lastChange = "2013-12-06 21:33:30 +0000";
layers = (
{
layerId = "940E2F63-624A-4C3D-A909-721782B4CF41";
name = Regular;
paths = (
{
closed = 1;
nodes = (
"79 121 LINE SMOOTH",
"79 124.866 OFFCURVE",
"75.866 128 OFFCURVE",
"72 128 CURVE SMOOTH",
"15 128 LINE SMOOTH",
"11.134 128 OFFCURVE",
"8 124.866 OFFCURVE",
"8 121 CURVE SMOOTH",
"8 64 LINE SMOOTH",
"8 60.134 OFFCURVE",
"11.134 57 OFFCURVE",
"15 57 CURVE SMOOTH",
"72 57 LINE SMOOTH",
"75.866 57 OFFCURVE",
"79 60.134 OFFCURVE",
"79 64 CURVE SMOOTH"
);
},
{
closed = 1;
nodes = (
"22 114 LINE",
"65 114 LINE",
"65 71 LINE",
"22 71 LINE"
);
},
{
closed = 1;
nodes = (
"125.134 71 OFFCURVE",
"122 67.866 OFFCURVE",
"122 64 CURVE SMOOTH",
"122 14 LINE",
"72 14 LINE SMOOTH",
"68.134 14 OFFCURVE",
"65 10.866 OFFCURVE",
"65 7 CURVE SMOOTH",
"65 3.134 OFFCURVE",
"68.134 0 OFFCURVE",
"72 0 CURVE SMOOTH",
"129 0 LINE SMOOTH",
"132.866 0 OFFCURVE",
"136 3.134 OFFCURVE",
"136 7 CURVE SMOOTH",
"136 64 LINE SMOOTH",
"136 67.866 OFFCURVE",
"132.866 71 OFFCURVE",
"129 71 CURVE SMOOTH"
);
}
);
width = 144;
}
);
unicode = 00B0;
},
